# xmcd
#
# Track frame offsets: 
#        150
#        11651
#        26303
#        38538
#        57858
#        79927
#        93156
#        107622
#        121212
#        134068
#        145677
#
# Disc length: 2071 seconds
#
# Revision: 0
# Processed by: cddbd v1.5.2PL0 Copyright (c) Steve Scherf et al.
# Submitted via: ExactAudioCopy v1.1
#
DISCID=8308150b
DTITLE=King Curtis - Have Tenor, Sax Will Blow
DYEAR=1959
DGENRE=Soul
TTITLE0=Have Tenor, Sax Will Blow
TTITLE1=Linda
TTITLE2=The Shake
TTITLE3=Jay Walk
TTITLE4=Lil Brother
TTITLE5=Peter Gunn
TTITLE6=The Groove
TTITLE7=Snake Eyes
TTITLE8=Cuban Twilight
TTITLE9=Birth Of The Blues
TTITLE10=Chili
EXTD=
EXTT0=
EXTT1=
EXTT2=
EXTT3=
EXTT4=
EXTT5=
EXTT6=
EXTT7=
EXTT8=
EXTT9=
EXTT10=
PLAYORDER=
